<?xml version="1.0" encoding="utf-8"?>
<!-- Generator: Adobe Illustrator 16.0.0, SVG Export Plug-In . SVG Version: 6.00 Build 0)  -->
<!DOCTYPE svg PUBLIC "-//W3C//DTD SVG 1.1//EN" "http://www.w3.org/Graphics/SVG/1.1/DTD/svg11.dtd">
<svg version="1.1" id="Layer_1" xmlns="http://www.w3.org/2000/svg" xmlns:xlink="http://www.w3.org/1999/xlink" x="0px" y="0px"
	 width="80px" height="80px" viewBox="0 0 80 80" enable-background="new 0 0 80 80" xml:space="preserve">
<path fill="#D1D1D1" d="M16.595,19.424l4.772-4.773c0.286-0.286,0.752-0.286,1.039,0c0.287,0.288,0.287,0.755,0,1.041l-4.254,4.255
	l4.254,4.254c0.287,0.287,0.287,0.752,0,1.04c-0.287,0.287-0.753,0.287-1.039,0l-4.772-4.771c-0.146-0.146-0.217-0.335-0.216-0.523
	C16.379,19.756,16.45,19.569,16.595,19.424z M20,9.015c6.066,0,10.985,4.918,10.985,10.985c0,6.065-4.919,10.984-10.985,10.984
	S9.015,26.066,9.015,20C9.015,13.933,13.933,9.015,20,9.015z M20,29.513c5.245,0,9.513-4.27,9.513-9.513
	c0-5.245-4.268-9.514-9.513-9.514c-5.244,0-9.513,4.269-9.513,9.514C10.487,25.244,14.755,29.513,20,29.513z"/>
<path fill="#D1D1D1" d="M63.405,19.424l-4.772-4.773c-0.286-0.286-0.752-0.286-1.039,0c-0.287,0.288-0.287,0.755,0,1.041
	l4.254,4.255l-4.254,4.254c-0.287,0.287-0.287,0.752,0,1.04c0.287,0.287,0.753,0.287,1.039,0l4.772-4.771
	c0.146-0.146,0.217-0.335,0.216-0.523C63.621,19.756,63.55,19.569,63.405,19.424z M60,9.015c-6.066,0-10.985,4.918-10.985,10.985
	c0,6.065,4.919,10.984,10.985,10.984S70.985,26.066,70.985,20C70.985,13.933,66.067,9.015,60,9.015z M60,29.513
	c-5.245,0-9.513-4.27-9.513-9.513c0-5.245,4.268-9.514,9.513-9.514c5.244,0,9.513,4.269,9.513,9.514
	C69.513,25.244,65.245,29.513,60,29.513z"/>
<path fill="#C7B299" d="M16.595,59.424l4.772-4.773c0.286-0.286,0.752-0.286,1.039,0c0.287,0.288,0.287,0.755,0,1.041l-4.254,4.255
	l4.254,4.254c0.287,0.287,0.287,0.752,0,1.04c-0.287,0.287-0.753,0.287-1.039,0l-4.772-4.771c-0.146-0.146-0.217-0.335-0.216-0.523
	C16.379,59.756,16.45,59.569,16.595,59.424z M20,49.015c6.066,0,10.985,4.918,10.985,10.985c0,6.065-4.919,10.984-10.985,10.984
	S9.015,66.066,9.015,60C9.015,53.933,13.933,49.015,20,49.015z M20,69.513c5.245,0,9.513-4.27,9.513-9.513
	c0-5.245-4.268-9.514-9.513-9.514c-5.244,0-9.513,4.269-9.513,9.514C10.487,65.244,14.755,69.513,20,69.513z"/>
<path fill="#C7B299" d="M63.405,59.424l-4.772-4.773c-0.286-0.286-0.752-0.286-1.039,0c-0.287,0.288-0.287,0.755,0,1.041
	l4.254,4.255l-4.254,4.254c-0.287,0.287-0.287,0.752,0,1.04c0.287,0.287,0.753,0.287,1.039,0l4.772-4.771
	c0.146-0.146,0.217-0.335,0.216-0.523C63.621,59.756,63.55,59.569,63.405,59.424z M60,49.015c-6.066,0-10.985,4.918-10.985,10.985
	c0,6.065,4.919,10.984,10.985,10.984S70.985,66.066,70.985,60C70.985,53.933,66.067,49.015,60,49.015z M60,69.513
	c-5.245,0-9.513-4.27-9.513-9.513c0-5.245,4.268-9.514,9.513-9.514c5.244,0,9.513,4.269,9.513,9.514
	C69.513,65.244,65.245,69.513,60,69.513z"/>
<g>
	<rect fill="none" width="40" height="40"/>
	<rect x="40" fill="none" width="40" height="40"/>
	<rect y="40" fill="none" width="40" height="40"/>
	<rect x="40" y="40" fill="none" width="40" height="40"/>
</g>
</svg>
