<?xml version="1.0" encoding="utf-8"?>
<!-- Generator: Adobe Illustrator 16.0.0, SVG Export Plug-In . SVG Version: 6.00 Build 0)  -->
<!DOCTYPE svg PUBLIC "-//W3C//DTD SVG 1.1//EN" "http://www.w3.org/Graphics/SVG/1.1/DTD/svg11.dtd">
<svg version="1.1" id="Layer_1" xmlns="http://www.w3.org/2000/svg" xmlns:xlink="http://www.w3.org/1999/xlink" x="0px" y="0px"
	 width="601px" height="241px" viewBox="0 0 601 241" enable-background="new 0 0 601 241" xml:space="preserve">
<g>
	<g>
		<g>
			<path fill="#C7B299" d="M58.438,68.75c5.688,0,10.312-5.629,10.312-12.547c0-6.92-4.625-12.547-10.312-12.547
				c-2.813,0-5.439,1.346-7.395,3.788c-1.883,2.354-2.919,5.464-2.918,8.759C48.125,63.122,52.75,68.75,58.438,68.75z
				 M58.438,46.406c4.17,0,7.562,4.395,7.562,9.797S62.607,66,58.438,66c-4.169,0-7.562-4.395-7.565-9.797
				C50.872,50.801,54.266,46.406,58.438,46.406z M67.098,67.375c-0.76,0-1.375,0.615-1.375,1.375s0.615,1.375,1.375,1.375
				c4.701,0,8.527,3.825,8.527,8.527c0,0.604-0.494,1.098-1.102,1.098H42.348c-0.604,0-1.098-0.491-1.098-1.098
				c0-4.702,3.824-8.527,8.524-8.527c0.76,0,1.375-0.615,1.375-1.375s-0.615-1.375-1.375-1.375c-6.216,0-11.274,5.06-11.274,11.277
				c0,2.122,1.727,3.848,3.848,3.848h32.175c2.123,0,3.852-1.726,3.852-3.848C78.375,72.435,73.315,67.375,67.098,67.375z
				 M59.442,42.129c0.984-0.584,2.034-0.878,3.12-0.878c4.17,0,7.562,4.396,7.562,9.796c0,0.969-0.107,1.919-0.32,2.828
				c-0.174,0.739,0.285,1.479,1.023,1.652c0.106,0.026,0.211,0.037,0.316,0.037c0.624,0,1.188-0.429,1.337-1.061
				c0.259-1.115,0.394-2.277,0.394-3.457c0-6.918-4.625-12.547-10.312-12.547c-1.564,0-3.124,0.436-4.519,1.261
				c-0.654,0.387-0.87,1.23-0.484,1.884C57.947,42.298,58.792,42.515,59.442,42.129z M71.5,61.875c-0.76,0-1.375,0.615-1.375,1.375
				s0.615,1.375,1.375,1.375c4.701,0,8.25,3.918,8.25,8.618c0,0.155-0.029,0.31-0.094,0.448c-0.308,0.695,0.005,1.506,0.697,1.814
				c0.181,0.081,0.371,0.119,0.559,0.119c0.527,0,1.029-0.307,1.258-0.816c0.219-0.494,0.33-1.021,0.33-1.568
				C82.5,67.027,77.717,61.875,71.5,61.875z"/>
		</g>
		<g>
			<path fill="#C7B299" d="M202.543,81.249c0,0.69-0.553,1.251-1.234,1.251h-43.575c-0.681,0-1.234-0.561-1.234-1.251
				s0.553-1.251,1.234-1.251h43.575C201.99,79.998,202.543,80.558,202.543,81.249z M178.269,60.712
				c0.238,0.225,0.54,0.337,0.842,0.337c0.33,0,0.66-0.134,0.902-0.397c0.465-0.506,0.438-1.297-0.06-1.769
				c-2.116-2.002-1.663-6.069,0.155-8.37c2.467-3.12,3.01-8.684-0.155-11.677c-0.499-0.471-1.279-0.443-1.745,0.062
				c-0.464,0.505-0.438,1.297,0.061,1.768c1.9,1.798,1.858,5.822-0.087,8.283c-1.279,1.617-2.043,3.785-2.097,5.947
				C176.026,57.259,176.802,59.325,178.269,60.712z M204.5,58.114v2.4c0,3.44-2.761,6.238-6.154,6.238h-2.754
				c-1.871,5.271-6.852,9.051-12.687,9.051h-6.767c-7.431,0-13.476-6.128-13.476-13.661v-12.41c0-0.691,0.552-1.252,1.234-1.252
				h7.915c1.607-2.476,1.535-6.127-0.249-7.814c-0.499-0.471-0.525-1.263-0.061-1.768s1.246-0.532,1.744-0.062
				c3.165,2.993,2.622,8.557,0.155,11.677c-1.819,2.301-2.271,6.369-0.155,8.37c0.499,0.472,0.525,1.263,0.061,1.769
				c-0.465,0.505-1.246,0.532-1.744,0.061c-1.467-1.388-2.243-3.453-2.184-5.816c0.034-1.347,0.343-2.696,0.881-3.914h-5.129v11.16
				c0,6.153,4.938,11.159,11.008,11.159h6.767c6.069,0,11.008-5.006,11.008-11.159v-11.16h-9.278c-0.682,0-1.234-0.56-1.234-1.25
				c0-0.691,0.553-1.252,1.234-1.252h10.513c0.681,0,1.233,0.561,1.233,1.252v2.143h1.965C201.739,51.875,204.5,54.673,204.5,58.114
				z M202.031,58.114c0-2.061-1.652-3.737-3.686-3.737h-1.965v9.874h1.965c2.033,0,3.686-1.676,3.686-3.736V58.114z"/>
		</g>
		<g>
			<path fill="#C7B299" d="M307.374,61.874h-13.748c-0.759,0-1.375,0.617-1.375,1.375c0,0.76,0.616,1.375,1.375,1.375h13.748
				c0.759,0,1.374-0.615,1.374-1.375C308.748,62.491,308.133,61.874,307.374,61.874z M310.123,53.627h-19.246
				c-0.759,0-1.375,0.615-1.375,1.375c0,0.759,0.616,1.374,1.375,1.374h19.246c0.76,0,1.375-0.615,1.375-1.374
				C311.498,54.242,310.883,53.627,310.123,53.627z M300.5,38.504c-12.147,0-21.996,8.616-21.996,19.247
				c0,6.074,3.224,11.483,8.248,15.011v9.734l9.636-5.847c1.334,0.22,2.706,0.348,4.112,0.348c12.149,0,21.996-8.617,21.996-19.246
				C322.496,47.12,312.649,38.504,300.5,38.504z M300.5,74.248c-1.605,0-3.156-0.187-4.646-0.505l-6.473,3.891l0.087-6.377
				c-4.962-2.983-8.214-7.916-8.214-13.506c0-9.111,8.616-16.497,19.246-16.497s19.247,7.386,19.247,16.497
				C319.747,66.861,311.13,74.248,300.5,74.248z"/>
		</g>
		<g>
			<path fill="#C7B299" d="M428.75,38.5c-0.425,0-0.848,0.026-1.268,0.064c-0.154,0.014-0.307,0.036-0.459,0.057
				c-0.258,0.031-0.514,0.07-0.769,0.116c-0.188,0.035-0.372,0.073-0.552,0.114c-0.211,0.049-0.42,0.104-0.63,0.162
				c-0.198,0.056-0.396,0.109-0.591,0.172c-0.177,0.059-0.349,0.128-0.523,0.193c-0.459,0.172-0.908,0.365-1.343,0.583
				c-0.086,0.042-0.176,0.081-0.261,0.126c-0.229,0.121-0.448,0.256-0.671,0.388c-0.121,0.075-0.245,0.145-0.365,0.223
				c-0.216,0.138-0.422,0.285-0.628,0.434c-0.062,0.046-0.128,0.087-0.191,0.133c-2.378-1.79-5.266-2.765-8.25-2.765
				c-7.582,0-13.75,6.166-13.75,13.75c0,12.444,8.002,23.702,21.406,30.113c0.188,0.091,0.392,0.137,0.594,0.137
				s0.405-0.046,0.594-0.137C434.497,75.952,442.5,64.694,442.5,52.25C442.5,44.666,436.331,38.5,428.75,38.5z M420.5,79.597
				c-12.065-5.988-19.25-16.17-19.25-27.347c0-6.065,4.935-11,11-11c2.219,0,4.368,0.685,6.19,1.934
				c-2.136,2.424-3.44,5.592-3.44,9.066c0,0.759,0.614,1.375,1.375,1.375s1.375-0.616,1.375-1.375c0-3.273,1.446-6.211,3.724-8.227
				c0.211-0.188,0.431-0.366,0.653-0.537c0.052-0.035,0.102-0.074,0.152-0.112c0.219-0.159,0.443-0.312,0.673-0.454
				c0.062-0.039,0.126-0.079,0.19-0.116c0.222-0.133,0.448-0.257,0.678-0.373c0.08-0.04,0.161-0.078,0.242-0.117
				c0.22-0.104,0.443-0.203,0.67-0.292c0.1-0.04,0.201-0.076,0.305-0.113c0.214-0.076,0.429-0.149,0.646-0.213
				c0.133-0.037,0.262-0.07,0.395-0.102c0.197-0.05,0.392-0.101,0.594-0.141c0.181-0.033,0.364-0.058,0.547-0.084
				c0.156-0.023,0.312-0.05,0.471-0.065c0.349-0.033,0.703-0.054,1.061-0.054c6.065,0,11,4.935,11,11
				C439.75,63.427,432.566,73.608,420.5,79.597z M428.75,44c-0.76,0-1.375,0.616-1.375,1.375c0,0.758,0.615,1.375,1.375,1.375
				c3.033,0,5.5,2.467,5.5,5.5c0,0.759,0.615,1.375,1.375,1.375S437,53.009,437,52.25C437,47.7,433.299,44,428.75,44z"/>
		</g>
		<path fill="#C7B299" d="M565.81,79.112h-50.62c-0.931,0-1.688,0.758-1.688,1.692c0,0.934,0.757,1.691,1.688,1.691h50.62
			c0.932,0,1.688-0.758,1.688-1.691C567.498,79.87,566.742,79.112,565.81,79.112z M542.187,45.272v-3.385h3.375
			c0.931,0,1.688-0.758,1.688-1.692c0-0.934-0.757-1.691-1.688-1.691h-10.124c-0.931,0-1.688,0.758-1.688,1.691
			c0,0.935,0.757,1.692,1.688,1.692h3.375c0,0-0.012,3.523,0,3.385c-14.12,0.878-25.311,12.691-25.311,27.072
			c0,1.373,0,0.758,0,1.691s0.757,1.692,1.688,1.692h50.62c0.932,0,1.688-0.759,1.688-1.692s0-0.211,0-1.691
			C567.498,57.964,556.307,46.15,542.187,45.272z M516.877,72.345c0-13.083,10.576-23.688,23.623-23.688
			s23.622,10.605,23.622,23.688H516.877z"/>
	</g>
	<g>
		<g>
			<path fill="#FFFFFF" d="M58.438,188.75c5.688,0,10.312-5.629,10.312-12.547c0-6.92-4.625-12.547-10.312-12.547
				c-2.813,0-5.439,1.346-7.395,3.788c-1.883,2.354-2.919,5.464-2.918,8.759C48.125,183.122,52.75,188.75,58.438,188.75z
				 M58.438,166.406c4.17,0,7.562,4.395,7.562,9.797S62.607,186,58.438,186c-4.169,0-7.562-4.395-7.565-9.797
				C50.872,170.801,54.266,166.406,58.438,166.406z M67.098,187.375c-0.76,0-1.375,0.615-1.375,1.375s0.615,1.375,1.375,1.375
				c4.701,0,8.527,3.825,8.527,8.527c0,0.604-0.494,1.098-1.102,1.098H42.348c-0.604,0-1.098-0.491-1.098-1.098
				c0-4.702,3.824-8.527,8.524-8.527c0.76,0,1.375-0.615,1.375-1.375s-0.615-1.375-1.375-1.375c-6.216,0-11.274,5.06-11.274,11.277
				c0,2.122,1.727,3.848,3.848,3.848h32.175c2.123,0,3.852-1.726,3.852-3.848C78.375,192.435,73.315,187.375,67.098,187.375z
				 M59.442,162.129c0.984-0.584,2.034-0.878,3.12-0.878c4.17,0,7.562,4.396,7.562,9.796c0,0.969-0.107,1.919-0.32,2.828
				c-0.174,0.739,0.285,1.479,1.023,1.652c0.106,0.026,0.211,0.037,0.316,0.037c0.624,0,1.188-0.429,1.337-1.061
				c0.259-1.115,0.394-2.277,0.394-3.457c0-6.918-4.625-12.547-10.312-12.547c-1.564,0-3.124,0.436-4.519,1.261
				c-0.654,0.387-0.87,1.23-0.484,1.884C57.947,162.298,58.792,162.515,59.442,162.129z M71.5,181.875
				c-0.76,0-1.375,0.615-1.375,1.375s0.615,1.375,1.375,1.375c4.701,0,8.25,3.918,8.25,8.618c0,0.155-0.029,0.31-0.094,0.448
				c-0.308,0.695,0.005,1.506,0.697,1.814c0.181,0.081,0.371,0.119,0.559,0.119c0.527,0,1.029-0.307,1.258-0.816
				c0.219-0.494,0.33-1.021,0.33-1.568C82.5,187.027,77.717,181.875,71.5,181.875z"/>
		</g>
		<g>
			<path fill="#FFFFFF" d="M202.543,201.249c0,0.69-0.553,1.251-1.234,1.251h-43.575c-0.681,0-1.234-0.561-1.234-1.251
				s0.553-1.251,1.234-1.251h43.575C201.99,199.998,202.543,200.558,202.543,201.249z M178.269,180.712
				c0.238,0.225,0.54,0.337,0.842,0.337c0.33,0,0.66-0.134,0.902-0.397c0.465-0.506,0.438-1.297-0.06-1.769
				c-2.116-2.002-1.663-6.069,0.155-8.37c2.467-3.12,3.01-8.684-0.155-11.677c-0.499-0.471-1.279-0.443-1.745,0.062
				c-0.464,0.505-0.438,1.297,0.061,1.768c1.9,1.798,1.858,5.822-0.087,8.283c-1.279,1.617-2.043,3.785-2.097,5.947
				C176.026,177.259,176.802,179.325,178.269,180.712z M204.5,178.114v2.4c0,3.44-2.761,6.238-6.154,6.238h-2.754
				c-1.871,5.271-6.852,9.051-12.687,9.051h-6.767c-7.431,0-13.476-6.128-13.476-13.661v-12.41c0-0.691,0.552-1.252,1.234-1.252
				h7.915c1.607-2.476,1.535-6.127-0.249-7.814c-0.499-0.471-0.525-1.263-0.061-1.768s1.246-0.532,1.744-0.062
				c3.165,2.993,2.622,8.557,0.155,11.677c-1.819,2.301-2.271,6.369-0.155,8.37c0.499,0.472,0.525,1.263,0.061,1.769
				c-0.465,0.505-1.246,0.532-1.744,0.061c-1.467-1.388-2.243-3.453-2.184-5.816c0.034-1.347,0.343-2.696,0.881-3.914h-5.129v11.16
				c0,6.153,4.938,11.159,11.008,11.159h6.767c6.069,0,11.008-5.006,11.008-11.159v-11.16h-9.278c-0.682,0-1.234-0.56-1.234-1.25
				c0-0.691,0.553-1.252,1.234-1.252h10.513c0.681,0,1.233,0.561,1.233,1.252v2.143h1.965
				C201.739,171.875,204.5,174.673,204.5,178.114z M202.031,178.114c0-2.061-1.652-3.737-3.686-3.737h-1.965v9.874h1.965
				c2.033,0,3.686-1.676,3.686-3.736V178.114z"/>
		</g>
		<g>
			<path fill="#FFFFFF" d="M307.374,181.874h-13.748c-0.759,0-1.375,0.617-1.375,1.375c0,0.76,0.616,1.375,1.375,1.375h13.748
				c0.759,0,1.374-0.615,1.374-1.375C308.748,182.491,308.133,181.874,307.374,181.874z M310.123,173.627h-19.246
				c-0.759,0-1.375,0.615-1.375,1.375c0,0.759,0.616,1.374,1.375,1.374h19.246c0.76,0,1.375-0.615,1.375-1.374
				C311.498,174.242,310.883,173.627,310.123,173.627z M300.5,158.504c-12.147,0-21.996,8.616-21.996,19.247
				c0,6.074,3.224,11.483,8.248,15.011v9.734l9.636-5.847c1.334,0.22,2.706,0.348,4.112,0.348c12.149,0,21.996-8.617,21.996-19.246
				C322.496,167.12,312.649,158.504,300.5,158.504z M300.5,194.248c-1.605,0-3.156-0.187-4.646-0.505l-6.473,3.891l0.087-6.377
				c-4.962-2.983-8.214-7.916-8.214-13.506c0-9.111,8.616-16.497,19.246-16.497s19.247,7.386,19.247,16.497
				C319.747,186.861,311.13,194.248,300.5,194.248z"/>
		</g>
		<g>
			<path fill="#FFFFFF" d="M428.75,158.5c-0.425,0-0.848,0.026-1.268,0.064c-0.154,0.014-0.307,0.036-0.459,0.057
				c-0.258,0.031-0.514,0.07-0.769,0.116c-0.188,0.035-0.372,0.073-0.552,0.114c-0.211,0.049-0.42,0.104-0.63,0.162
				c-0.198,0.056-0.396,0.109-0.591,0.172c-0.177,0.059-0.349,0.128-0.523,0.193c-0.459,0.172-0.908,0.365-1.343,0.583
				c-0.086,0.042-0.176,0.081-0.261,0.126c-0.229,0.121-0.448,0.256-0.671,0.388c-0.121,0.075-0.245,0.145-0.365,0.223
				c-0.216,0.138-0.422,0.285-0.628,0.434c-0.062,0.046-0.128,0.087-0.191,0.133c-2.378-1.79-5.266-2.765-8.25-2.765
				c-7.582,0-13.75,6.166-13.75,13.75c0,12.444,8.002,23.702,21.406,30.113c0.188,0.091,0.392,0.137,0.594,0.137
				s0.405-0.046,0.594-0.137c13.403-6.411,21.406-17.669,21.406-30.113C442.5,164.666,436.331,158.5,428.75,158.5z M420.5,199.597
				c-12.065-5.988-19.25-16.17-19.25-27.347c0-6.065,4.935-11,11-11c2.219,0,4.368,0.685,6.19,1.934
				c-2.136,2.424-3.44,5.592-3.44,9.066c0,0.759,0.614,1.375,1.375,1.375s1.375-0.616,1.375-1.375c0-3.273,1.446-6.211,3.724-8.227
				c0.211-0.188,0.431-0.366,0.653-0.537c0.052-0.035,0.102-0.074,0.152-0.112c0.219-0.159,0.443-0.312,0.673-0.454
				c0.062-0.039,0.126-0.079,0.19-0.116c0.222-0.133,0.448-0.257,0.678-0.373c0.08-0.04,0.161-0.078,0.242-0.117
				c0.22-0.104,0.443-0.203,0.67-0.292c0.1-0.04,0.201-0.076,0.305-0.113c0.214-0.076,0.429-0.149,0.646-0.213
				c0.133-0.037,0.262-0.07,0.395-0.102c0.197-0.05,0.392-0.101,0.594-0.141c0.181-0.033,0.364-0.058,0.547-0.084
				c0.156-0.023,0.312-0.05,0.471-0.065c0.349-0.033,0.703-0.054,1.061-0.054c6.065,0,11,4.935,11,11
				C439.75,183.427,432.566,193.608,420.5,199.597z M428.75,164c-0.76,0-1.375,0.616-1.375,1.375c0,0.758,0.615,1.375,1.375,1.375
				c3.033,0,5.5,2.467,5.5,5.5c0,0.759,0.615,1.375,1.375,1.375S437,173.009,437,172.25C437,167.7,433.299,164,428.75,164z"/>
		</g>
		<path fill="#FFFFFF" d="M565.81,199.112h-50.62c-0.931,0-1.688,0.758-1.688,1.692c0,0.934,0.757,1.691,1.688,1.691h50.62
			c0.932,0,1.688-0.758,1.688-1.691C567.498,199.87,566.742,199.112,565.81,199.112z M542.187,165.272v-3.385h3.375
			c0.931,0,1.688-0.758,1.688-1.692c0-0.934-0.757-1.691-1.688-1.691h-10.124c-0.931,0-1.688,0.758-1.688,1.691
			c0,0.935,0.757,1.692,1.688,1.692h3.375c0,0-0.012,3.523,0,3.385c-14.12,0.878-25.311,12.691-25.311,27.072
			c0,1.373,0,0.758,0,1.691s0.757,1.692,1.688,1.692h50.62c0.932,0,1.688-0.759,1.688-1.692s0-0.211,0-1.691
			C567.498,177.964,556.307,166.15,542.187,165.272z M516.877,192.345c0-13.083,10.576-23.688,23.623-23.688
			s23.622,10.605,23.622,23.688H516.877z"/>
	</g>
</g>
</svg>
