<?xml version="1.0" encoding="utf-8"?>
<!-- Generator: Adobe Illustrator 16.0.0, SVG Export Plug-In . SVG Version: 6.00 Build 0)  -->
<!DOCTYPE svg PUBLIC "-//W3C//DTD SVG 1.1//EN" "http://www.w3.org/Graphics/SVG/1.1/DTD/svg11.dtd">
<svg version="1.1" id="Layer_1" xmlns="http://www.w3.org/2000/svg" xmlns:xlink="http://www.w3.org/1999/xlink" x="0px" y="0px"
	 width="70px" height="70px" viewBox="0 0 70 70" enable-background="new 0 0 70 70" xml:space="preserve">
<g>
	<g>
		<path fill="#FFFFFF" d="M59.761,10.24c-13.654-13.653-35.868-13.652-49.521,0c-13.653,13.654-13.653,35.869,0,49.523
			c0.805,0.804,2.109,0.804,2.913,0c0.805-0.806,0.805-2.11,0-2.914c-12.047-12.048-12.047-31.648,0-43.695
			c12.046-12.049,31.648-12.049,43.695,0c12.046,12.047,12.046,31.647,0,43.695c-9.764,9.767-24.977,11.856-36.994,5.092
			c-0.992-0.56-2.248-0.207-2.805,0.785c-0.559,0.989-0.207,2.247,0.783,2.806c5.344,3.008,11.242,4.471,17.106,4.471
			c9.089,0,18.098-3.515,24.822-10.238C73.415,46.109,73.415,23.894,59.761,10.24z"/>
	</g>
</g>
<g>
	<path fill="#FFFFFF" d="M30.306,51.794c-1.104,0-2-0.896-2-2V20.206c0-1.104,0.896-2,2-2s2,0.896,2,2v29.588
		C32.306,50.899,31.411,51.794,30.306,51.794z"/>
	<path fill="#FFFFFF" d="M39.694,51.794c-1.104,0-2-0.896-2-2V20.206c0-1.104,0.896-2,2-2s2,0.896,2,2v29.588
		C41.694,50.899,40.798,51.794,39.694,51.794z"/>
</g>
</svg>
