<?xml version="1.0" encoding="utf-8"?>
<!-- Generator: Adobe Illustrator 16.0.0, SVG Export Plug-In . SVG Version: 6.00 Build 0)  -->
<!DOCTYPE svg PUBLIC "-//W3C//DTD SVG 1.1//EN" "http://www.w3.org/Graphics/SVG/1.1/DTD/svg11.dtd">
<svg version="1.1" id="Layer_1" xmlns="http://www.w3.org/2000/svg" xmlns:xlink="http://www.w3.org/1999/xlink" x="0px" y="0px"
	 width="70.001px" height="70.001px" viewBox="0 0 70.001 70.001" enable-background="new 0 0 70.001 70.001" xml:space="preserve">
<g>
	<g>
		<path fill="#FFFFFF" d="M29.936,51.823c0.473,0,0.941-0.162,1.318-0.477l17.715-14.763c0.471-0.392,0.742-0.971,0.742-1.582
			s-0.272-1.191-0.742-1.582L31.254,18.656c-0.612-0.511-1.469-0.622-2.191-0.283c-0.725,0.339-1.187,1.066-1.187,1.866v29.524
			c0,0.8,0.463,1.527,1.187,1.866C29.342,51.759,29.64,51.823,29.936,51.823z M31.996,24.636l12.438,10.365L31.996,45.366V24.636z
			 M59.761,10.24c-13.654-13.653-35.868-13.652-49.521,0c-13.653,13.654-13.653,35.869,0,49.523c0.805,0.804,2.109,0.804,2.913,0
			c0.805-0.805,0.805-2.11,0-2.914c-12.047-12.047-12.047-31.648,0-43.695c12.046-12.049,31.648-12.049,43.695,0
			c12.046,12.047,12.046,31.648,0,43.695c-9.764,9.766-24.977,11.857-36.994,5.092c-0.992-0.559-2.248-0.207-2.805,0.785
			c-0.559,0.99-0.207,2.247,0.783,2.805c5.344,3.009,11.242,4.472,17.106,4.471c9.089,0,18.097-3.514,24.822-10.238
			C73.414,46.109,73.414,23.894,59.761,10.24z"/>
	</g>
</g>
</svg>
