<?xml version="1.0" encoding="utf-8"?>
<!-- Generator: Adobe Illustrator 16.0.0, SVG Export Plug-In . SVG Version: 6.00 Build 0)  -->
<!DOCTYPE svg PUBLIC "-//W3C//DTD SVG 1.1//EN" "http://www.w3.org/Graphics/SVG/1.1/DTD/svg11.dtd">
<svg version="1.1" id="Layer_1" xmlns="http://www.w3.org/2000/svg" xmlns:xlink="http://www.w3.org/1999/xlink" x="0px" y="0px"
	 width="63.046px" height="55.134px" viewBox="0 0 63.046 55.134" enable-background="new 0 0 63.046 55.134" xml:space="preserve">
<g>
	<g>
		<path fill="#FFFFFF" d="M36.776,10.72H26.269l5.254,9.191L36.776,10.72z M24.955,11.486l-5.254,9.191h10.508L24.955,11.486z
			 M43.345,20.678l-5.254-9.191l-5.254,9.191H43.345z M32.837,22.208l5.254,9.188l5.254-9.188H32.837z M19.701,22.208l5.254,9.188
			l5.254-9.188H19.701z M13.134,32.161H23.64l-5.253-9.188L13.134,32.161z M49.912,32.161l-5.253-9.188l-5.252,9.188H49.912z
			 M31.523,0l-5.254,9.19h10.507L31.523,0z M44.659,42.881l5.253-9.188H39.407L44.659,42.881z M18.387,42.881l5.253-9.188H13.134
			L18.387,42.881z M6.566,43.648h10.507l-5.253-9.19L6.566,43.648z M56.479,43.648l-5.254-9.19l-5.254,9.19H56.479z M45.972,45.178
			l5.254,9.188l5.254-9.188H45.972z M32.837,45.178l5.254,9.188l5.254-9.188H32.837z M11.82,54.366l5.253-9.188H6.566L11.82,54.366z
			 M0,55.134h10.505l-5.254-9.188L0,55.134z M26.269,55.134h10.507l-5.253-9.188L26.269,55.134z M39.407,55.134h10.505l-5.253-9.188
			L39.407,55.134z M57.794,45.946l-5.252,9.188h10.504L57.794,45.946z"/>
	</g>
</g>
</svg>
