<?xml version="1.0" encoding="utf-8"?>
<!-- Generator: Adobe Illustrator 16.0.0, SVG Export Plug-In . SVG Version: 6.00 Build 0)  -->
<!DOCTYPE svg PUBLIC "-//W3C//DTD SVG 1.1//EN" "http://www.w3.org/Graphics/SVG/1.1/DTD/svg11.dtd">
<svg version="1.1" id="Layer_1" xmlns="http://www.w3.org/2000/svg" xmlns:xlink="http://www.w3.org/1999/xlink" x="0px" y="0px"
	 width="20.997px" height="20.997px" viewBox="0 0 20.997 20.997" enable-background="new 0 0 20.997 20.997" xml:space="preserve">
<path fill="#C7B299" d="M10.498,0C4.7,0,0,4.7,0,10.498c0,5.799,4.7,10.499,10.498,10.499c5.799,0,10.499-4.7,10.499-10.499
	C20.997,4.7,16.297,0,10.498,0z M13.788,10.995l-4.54,4.539c-0.272,0.273-0.716,0.273-0.99,0c-0.272-0.273-0.272-0.717,0-0.99
	l4.047-4.046L8.258,6.451c-0.272-0.272-0.272-0.716,0-0.989c0.273-0.273,0.717-0.273,0.99,0l4.54,4.539
	c0.138,0.138,0.206,0.318,0.205,0.497C13.993,10.679,13.925,10.857,13.788,10.995z"/>
</svg>
